<svg xmlns="http://www.w3.org/2000/svg" xmlns:xlink="http://www.w3.org/1999/xlink" width="200" zoomAndPan="magnify" viewBox="0 0 150 112.499997" height="150" preserveAspectRatio="xMidYMid meet" version="1.0"><defs><g/><clipPath id="df9a123358"><path d="M 46 68 L 116.3125 68 L 116.3125 94 L 46 94 Z M 46 68 " clip-rule="nonzero"/></clipPath></defs><path fill="#289db9" d="M 83.382812 99.628906 C 84.632812 99.257812 85.851562 98.832031 87.042969 98.351562 C 66.496094 102.417969 45.855469 90.242188 39.773438 69.761719 C 33.691406 49.285156 44.339844 27.816406 63.777344 20.007812 C 62.519531 20.257812 61.265625 20.5625 60.011719 20.933594 C 38.28125 27.386719 25.894531 50.238281 32.347656 71.96875 C 38.800781 93.699219 61.648438 106.085938 83.382812 99.628906 " fill-opacity="1" fill-rule="nonzero"/><path fill="#ffffff" d="M 32.523438 89.210938 C 33.613281 90.066406 34.730469 90.859375 35.875 91.59375 C 19.757812 76.328125 17.621094 51.019531 31.59375 33.199219 C 45.5625 15.382812 70.652344 11.421875 89.320312 23.429688 C 88.332031 22.496094 87.300781 21.601562 86.210938 20.746094 C 67.304688 5.921875 39.957031 9.230469 25.132812 28.136719 C 10.308594 47.042969 13.617188 74.386719 32.523438 89.210938 " fill-opacity="1" fill-rule="nonzero"/><g clip-path="url(#df9a123358)"><path fill="#ffffff" d="M 72.976562 87.226562 C 61.765625 84.210938 52.542969 77.488281 46.273438 68.734375 C 51.214844 79.652344 60.828125 88.351562 73.304688 91.707031 C 89.601562 96.085938 106.242188 90.125 116.253906 77.835938 C 104.613281 87.429688 88.65625 91.441406 72.976562 87.226562 " fill-opacity="1" fill-rule="nonzero"/></g><g fill="#ffffff" fill-opacity="1"><g transform="translate(52.164814, 64.796343)"><g><path d="M 16.546875 -17.84375 L 14.53125 -6.078125 C 14.25 -4.109375 13.429688 -2.550781 12.078125 -1.40625 C 10.722656 -0.257812 9.039062 0.289062 7.03125 0.25 C 5.769531 0.226562 4.675781 -0.0390625 3.75 -0.5625 C 2.820312 -1.09375 2.132812 -1.835938 1.6875 -2.796875 C 1.25 -3.753906 1.097656 -4.84375 1.234375 -6.0625 L 3.234375 -17.84375 L 6.828125 -17.84375 L 4.828125 -6.0625 C 4.773438 -5.601562 4.769531 -5.171875 4.8125 -4.765625 C 4.976562 -3.441406 5.769531 -2.753906 7.1875 -2.703125 C 8.195312 -2.671875 9.023438 -2.945312 9.671875 -3.53125 C 10.316406 -4.125 10.734375 -4.96875 10.921875 -6.0625 L 12.9375 -17.84375 Z M 16.546875 -17.84375 "/></g></g></g><g fill="#ffffff" fill-opacity="1"><g transform="translate(67.142636, 64.796343)"><g><path d="M 12.046875 -7.734375 L 5.203125 -7.734375 L 4.359375 -2.953125 L 12.40625 -2.953125 L 11.890625 0 L 0.25 0 L 3.359375 -17.84375 L 14.96875 -17.84375 L 14.4375 -14.875 L 6.4375 -14.875 L 5.6875 -10.625 L 12.5625 -10.625 Z M 12.046875 -7.734375 "/></g></g></g><g fill="#ffffff" fill-opacity="1"><g transform="translate(79.778869, 64.796343)"><g><path d="M 7.828125 -6.21875 L 1.109375 -6.21875 L 1.59375 -9.078125 L 8.328125 -9.078125 Z M 7.828125 -6.21875 "/></g></g></g><g fill="#ffffff" fill-opacity="1"><g transform="translate(87.293333, 64.308632)"><g><path d="M 7.96875 -17.84375 L 10.15625 -4.9375 L 16.828125 -17.84375 L 21.609375 -17.84375 L 18.5 0 L 14.890625 0 L 15.78125 -5.09375 L 17.515625 -13.03125 L 10.671875 0 L 8.21875 0 L 5.828125 -13.484375 L 4.671875 -4.703125 L 3.84375 0 L 0.25 0 L 3.359375 -17.84375 Z M 7.96875 -17.84375 "/></g></g></g><g fill="#ffffff" fill-opacity="1"><g transform="translate(107.567617, 64.308632)"><g><path d="M 10.75 -3.671875 L 4.53125 -3.671875 L 2.6875 0 L -1.28125 0 L 8.265625 -17.84375 L 11.59375 -17.84375 L 14.984375 0 L 11.3125 0 Z M 6 -6.65625 L 10.296875 -6.65625 L 9.296875 -13.296875 Z M 6 -6.65625 "/></g></g></g><g fill="#ffffff" fill-opacity="1"><g transform="translate(122.901205, 64.308632)"><g><path d="M 4.953125 -6.296875 L 3.84375 0 L 0.25 0 L 3.359375 -17.84375 L 9.609375 -17.84375 C 11.535156 -17.84375 13.050781 -17.304688 14.15625 -16.234375 C 15.257812 -15.160156 15.742188 -13.765625 15.609375 -12.046875 C 15.472656 -10.296875 14.738281 -8.894531 13.40625 -7.84375 C 12.082031 -6.800781 10.394531 -6.28125 8.34375 -6.28125 Z M 5.453125 -9.265625 L 8.453125 -9.25 C 9.410156 -9.25 10.207031 -9.492188 10.84375 -9.984375 C 11.488281 -10.484375 11.867188 -11.160156 11.984375 -12.015625 C 12.109375 -12.867188 11.972656 -13.546875 11.578125 -14.046875 C 11.179688 -14.554688 10.597656 -14.828125 9.828125 -14.859375 L 6.4375 -14.875 Z M 5.453125 -9.265625 "/></g></g></g><g fill="#ffffff" fill-opacity="1"><g transform="translate(54.838226, 72.767154)"><g><path d="M 0.078125 0 L 0.953125 -4.046875 L 2.078125 -4.046875 C 2.242188 -4.046875 2.421875 -4.035156 2.609375 -4.015625 C 2.796875 -3.992188 2.96875 -3.945312 3.125 -3.875 C 3.28125 -3.800781 3.40625 -3.695312 3.5 -3.5625 C 3.59375 -3.425781 3.640625 -3.242188 3.640625 -3.015625 C 3.640625 -2.660156 3.5625 -2.378906 3.40625 -2.171875 C 3.25 -1.972656 3.023438 -1.828125 2.734375 -1.734375 C 2.453125 -1.648438 2.117188 -1.609375 1.734375 -1.609375 L 1 -1.609375 L 0.671875 0 Z M 1.109375 -2.09375 L 1.890625 -2.09375 C 2.128906 -2.09375 2.332031 -2.117188 2.5 -2.171875 C 2.675781 -2.222656 2.8125 -2.3125 2.90625 -2.4375 C 3 -2.5625 3.046875 -2.734375 3.046875 -2.953125 C 3.046875 -3.203125 2.960938 -3.363281 2.796875 -3.4375 C 2.628906 -3.519531 2.40625 -3.5625 2.125 -3.5625 L 1.421875 -3.5625 Z M 1.109375 -2.09375 "/></g></g></g><g fill="#ffffff" fill-opacity="1"><g transform="translate(58.456527, 72.767154)"><g><path d="M 0.046875 0 L 0.6875 -3 L 1.0625 -3 L 1.109375 -2.4375 C 1.234375 -2.613281 1.378906 -2.757812 1.546875 -2.875 C 1.722656 -3 1.957031 -3.0625 2.25 -3.0625 L 2.328125 -3.0625 L 2.203125 -2.515625 C 2.085938 -2.515625 1.984375 -2.507812 1.890625 -2.5 C 1.585938 -2.445312 1.351562 -2.304688 1.1875 -2.078125 C 1.019531 -1.859375 0.898438 -1.582031 0.828125 -1.25 L 0.5625 0 Z M 0.046875 0 "/></g></g></g><g fill="#ffffff" fill-opacity="1"><g transform="translate(60.595993, 72.767154)"><g><path d="M 1.390625 0.078125 C 0.984375 0.078125 0.675781 -0.0390625 0.46875 -0.28125 C 0.257812 -0.519531 0.15625 -0.828125 0.15625 -1.203125 C 0.15625 -1.554688 0.226562 -1.875 0.375 -2.15625 C 0.519531 -2.4375 0.71875 -2.65625 0.96875 -2.8125 C 1.21875 -2.976562 1.507812 -3.0625 1.84375 -3.0625 C 2.039062 -3.0625 2.234375 -3.015625 2.421875 -2.921875 C 2.609375 -2.828125 2.757812 -2.6875 2.875 -2.5 C 2.988281 -2.320312 3.046875 -2.09375 3.046875 -1.8125 C 3.046875 -1.550781 3.003906 -1.304688 2.921875 -1.078125 C 2.835938 -0.859375 2.722656 -0.660156 2.578125 -0.484375 C 2.429688 -0.304688 2.257812 -0.164062 2.0625 -0.0625 C 1.863281 0.03125 1.640625 0.078125 1.390625 0.078125 Z M 1.4375 -0.375 C 1.664062 -0.375 1.859375 -0.441406 2.015625 -0.578125 C 2.179688 -0.722656 2.300781 -0.90625 2.375 -1.125 C 2.457031 -1.351562 2.5 -1.585938 2.5 -1.828125 C 2.5 -2.117188 2.425781 -2.320312 2.28125 -2.4375 C 2.144531 -2.550781 1.972656 -2.609375 1.765625 -2.609375 C 1.523438 -2.609375 1.320312 -2.535156 1.15625 -2.390625 C 1 -2.253906 0.882812 -2.078125 0.8125 -1.859375 C 0.738281 -1.648438 0.703125 -1.429688 0.703125 -1.203125 C 0.703125 -0.953125 0.765625 -0.75 0.890625 -0.59375 C 1.015625 -0.445312 1.195312 -0.375 1.4375 -0.375 Z M 1.4375 -0.375 "/></g></g></g><g fill="#ffffff" fill-opacity="1"><g transform="translate(63.911255, 72.767154)"><g><path d="M 1.34375 0.078125 C 0.96875 0.078125 0.675781 -0.03125 0.46875 -0.25 C 0.257812 -0.476562 0.15625 -0.78125 0.15625 -1.15625 C 0.15625 -1.5 0.222656 -1.8125 0.359375 -2.09375 C 0.492188 -2.382812 0.6875 -2.617188 0.9375 -2.796875 C 1.1875 -2.972656 1.476562 -3.0625 1.8125 -3.0625 C 2.082031 -3.0625 2.3125 -3 2.5 -2.875 C 2.6875 -2.757812 2.828125 -2.59375 2.921875 -2.375 L 2.421875 -2.203125 C 2.378906 -2.328125 2.300781 -2.425781 2.1875 -2.5 C 2.070312 -2.570312 1.9375 -2.609375 1.78125 -2.609375 C 1.550781 -2.609375 1.359375 -2.539062 1.203125 -2.40625 C 1.046875 -2.269531 0.925781 -2.09375 0.84375 -1.875 C 0.757812 -1.664062 0.71875 -1.4375 0.71875 -1.1875 C 0.71875 -0.957031 0.769531 -0.765625 0.875 -0.609375 C 0.988281 -0.453125 1.1875 -0.375 1.46875 -0.375 C 1.625 -0.375 1.765625 -0.410156 1.890625 -0.484375 C 2.015625 -0.554688 2.125 -0.648438 2.21875 -0.765625 L 2.640625 -0.59375 C 2.503906 -0.375 2.320312 -0.207031 2.09375 -0.09375 C 1.863281 0.0195312 1.613281 0.078125 1.34375 0.078125 Z M 1.34375 0.078125 "/></g></g></g><g fill="#ffffff" fill-opacity="1"><g transform="translate(66.911358, 72.767154)"><g><path d="M 1.4375 0.078125 C 1.039062 0.078125 0.726562 -0.0351562 0.5 -0.265625 C 0.269531 -0.503906 0.15625 -0.816406 0.15625 -1.203125 C 0.15625 -1.554688 0.222656 -1.875 0.359375 -2.15625 C 0.503906 -2.4375 0.707031 -2.65625 0.96875 -2.8125 C 1.226562 -2.976562 1.53125 -3.0625 1.875 -3.0625 C 2.144531 -3.0625 2.367188 -3.003906 2.546875 -2.890625 C 2.722656 -2.785156 2.851562 -2.640625 2.9375 -2.453125 C 3.03125 -2.265625 3.078125 -2.050781 3.078125 -1.8125 C 3.078125 -1.664062 3.0625 -1.515625 3.03125 -1.359375 L 0.703125 -1.359375 C 0.703125 -1.335938 0.703125 -1.3125 0.703125 -1.28125 C 0.703125 -1.25 0.703125 -1.21875 0.703125 -1.1875 C 0.703125 -0.988281 0.738281 -0.828125 0.8125 -0.703125 C 0.894531 -0.585938 1 -0.503906 1.125 -0.453125 C 1.25 -0.398438 1.375 -0.375 1.5 -0.375 C 1.675781 -0.375 1.820312 -0.398438 1.9375 -0.453125 C 2.0625 -0.515625 2.164062 -0.585938 2.25 -0.671875 L 2.71875 -0.53125 C 2.582031 -0.351562 2.40625 -0.207031 2.1875 -0.09375 C 1.976562 0.0195312 1.726562 0.078125 1.4375 0.078125 Z M 0.78125 -1.78125 L 2.546875 -1.78125 C 2.554688 -1.800781 2.5625 -1.816406 2.5625 -1.828125 C 2.5625 -1.847656 2.5625 -1.863281 2.5625 -1.875 C 2.5625 -2 2.535156 -2.117188 2.484375 -2.234375 C 2.429688 -2.347656 2.347656 -2.441406 2.234375 -2.515625 C 2.128906 -2.585938 1.984375 -2.625 1.796875 -2.625 C 1.648438 -2.625 1.503906 -2.585938 1.359375 -2.515625 C 1.222656 -2.453125 1.101562 -2.359375 1 -2.234375 C 0.894531 -2.109375 0.820312 -1.957031 0.78125 -1.78125 Z M 0.78125 -1.78125 "/></g></g></g><g fill="#ffffff" fill-opacity="1"><g transform="translate(70.196316, 72.767154)"><g><path d="M 1.296875 0.078125 C 0.992188 0.078125 0.738281 0.0195312 0.53125 -0.09375 C 0.320312 -0.21875 0.164062 -0.414062 0.0625 -0.6875 L 0.578125 -0.859375 C 0.609375 -0.679688 0.695312 -0.550781 0.84375 -0.46875 C 0.988281 -0.382812 1.144531 -0.34375 1.3125 -0.34375 C 1.476562 -0.34375 1.628906 -0.382812 1.765625 -0.46875 C 1.898438 -0.550781 1.96875 -0.671875 1.96875 -0.828125 C 1.96875 -0.941406 1.925781 -1.03125 1.84375 -1.09375 C 1.769531 -1.15625 1.664062 -1.207031 1.53125 -1.25 C 1.40625 -1.289062 1.269531 -1.328125 1.125 -1.359375 C 0.988281 -1.398438 0.859375 -1.453125 0.734375 -1.515625 C 0.609375 -1.578125 0.503906 -1.660156 0.421875 -1.765625 C 0.335938 -1.878906 0.296875 -2.03125 0.296875 -2.21875 C 0.296875 -2.40625 0.351562 -2.5625 0.46875 -2.6875 C 0.582031 -2.8125 0.722656 -2.90625 0.890625 -2.96875 C 1.066406 -3.03125 1.253906 -3.0625 1.453125 -3.0625 C 1.617188 -3.0625 1.78125 -3.035156 1.9375 -2.984375 C 2.09375 -2.941406 2.234375 -2.875 2.359375 -2.78125 C 2.484375 -2.6875 2.566406 -2.570312 2.609375 -2.4375 L 2.125 -2.265625 C 2.082031 -2.390625 1.988281 -2.484375 1.84375 -2.546875 C 1.707031 -2.609375 1.5625 -2.640625 1.40625 -2.640625 C 1.257812 -2.640625 1.125 -2.601562 1 -2.53125 C 0.875 -2.46875 0.8125 -2.375 0.8125 -2.25 C 0.8125 -2.132812 0.851562 -2.046875 0.9375 -1.984375 C 1.019531 -1.921875 1.125 -1.867188 1.25 -1.828125 C 1.375 -1.785156 1.507812 -1.742188 1.65625 -1.703125 C 1.800781 -1.671875 1.9375 -1.625 2.0625 -1.5625 C 2.195312 -1.5 2.300781 -1.410156 2.375 -1.296875 C 2.457031 -1.191406 2.5 -1.046875 2.5 -0.859375 C 2.5 -0.660156 2.441406 -0.488281 2.328125 -0.34375 C 2.222656 -0.207031 2.078125 -0.101562 1.890625 -0.03125 C 1.710938 0.0390625 1.515625 0.078125 1.296875 0.078125 Z M 1.296875 0.078125 "/></g></g></g><g fill="#ffffff" fill-opacity="1"><g transform="translate(73.099443, 72.767154)"><g><path d="M 1.296875 0.078125 C 0.992188 0.078125 0.738281 0.0195312 0.53125 -0.09375 C 0.320312 -0.21875 0.164062 -0.414062 0.0625 -0.6875 L 0.578125 -0.859375 C 0.609375 -0.679688 0.695312 -0.550781 0.84375 -0.46875 C 0.988281 -0.382812 1.144531 -0.34375 1.3125 -0.34375 C 1.476562 -0.34375 1.628906 -0.382812 1.765625 -0.46875 C 1.898438 -0.550781 1.96875 -0.671875 1.96875 -0.828125 C 1.96875 -0.941406 1.925781 -1.03125 1.84375 -1.09375 C 1.769531 -1.15625 1.664062 -1.207031 1.53125 -1.25 C 1.40625 -1.289062 1.269531 -1.328125 1.125 -1.359375 C 0.988281 -1.398438 0.859375 -1.453125 0.734375 -1.515625 C 0.609375 -1.578125 0.503906 -1.660156 0.421875 -1.765625 C 0.335938 -1.878906 0.296875 -2.03125 0.296875 -2.21875 C 0.296875 -2.40625 0.351562 -2.5625 0.46875 -2.6875 C 0.582031 -2.8125 0.722656 -2.90625 0.890625 -2.96875 C 1.066406 -3.03125 1.253906 -3.0625 1.453125 -3.0625 C 1.617188 -3.0625 1.78125 -3.035156 1.9375 -2.984375 C 2.09375 -2.941406 2.234375 -2.875 2.359375 -2.78125 C 2.484375 -2.6875 2.566406 -2.570312 2.609375 -2.4375 L 2.125 -2.265625 C 2.082031 -2.390625 1.988281 -2.484375 1.84375 -2.546875 C 1.707031 -2.609375 1.5625 -2.640625 1.40625 -2.640625 C 1.257812 -2.640625 1.125 -2.601562 1 -2.53125 C 0.875 -2.46875 0.8125 -2.375 0.8125 -2.25 C 0.8125 -2.132812 0.851562 -2.046875 0.9375 -1.984375 C 1.019531 -1.921875 1.125 -1.867188 1.25 -1.828125 C 1.375 -1.785156 1.507812 -1.742188 1.65625 -1.703125 C 1.800781 -1.671875 1.9375 -1.625 2.0625 -1.5625 C 2.195312 -1.5 2.300781 -1.410156 2.375 -1.296875 C 2.457031 -1.191406 2.5 -1.046875 2.5 -0.859375 C 2.5 -0.660156 2.441406 -0.488281 2.328125 -0.34375 C 2.222656 -0.207031 2.078125 -0.101562 1.890625 -0.03125 C 1.710938 0.0390625 1.515625 0.078125 1.296875 0.078125 Z M 1.296875 0.078125 "/></g></g></g><g fill="#ffffff" fill-opacity="1"><g transform="translate(76.00257, 72.767154)"><g/></g></g><g fill="#ffffff" fill-opacity="1"><g transform="translate(77.699595, 72.767154)"><g><path d="M 0.078125 0 L 0.953125 -4.046875 L 1.890625 -4.046875 L 2.265625 -0.765625 L 4.03125 -4.046875 L 5.015625 -4.046875 L 4.15625 0 L 3.578125 0 L 4.296875 -3.390625 L 2.421875 0 L 1.84375 0 L 1.40625 -3.484375 L 0.671875 0 Z M 0.078125 0 "/></g></g></g><g fill="#ffffff" fill-opacity="1"><g transform="translate(82.6937, 72.767154)"><g><path d="M 0.9375 0.078125 C 0.675781 0.078125 0.457031 0.00390625 0.28125 -0.140625 C 0.113281 -0.285156 0.03125 -0.472656 0.03125 -0.703125 C 0.03125 -0.910156 0.0820312 -1.078125 0.1875 -1.203125 C 0.300781 -1.335938 0.441406 -1.445312 0.609375 -1.53125 C 0.773438 -1.613281 0.957031 -1.675781 1.15625 -1.71875 C 1.363281 -1.757812 1.5625 -1.789062 1.75 -1.8125 C 1.9375 -1.832031 2.101562 -1.851562 2.25 -1.875 C 2.257812 -1.925781 2.265625 -1.972656 2.265625 -2.015625 C 2.273438 -2.066406 2.28125 -2.117188 2.28125 -2.171875 C 2.28125 -2.484375 2.097656 -2.640625 1.734375 -2.640625 C 1.546875 -2.640625 1.382812 -2.597656 1.25 -2.515625 C 1.125 -2.429688 1.023438 -2.316406 0.953125 -2.171875 L 0.5 -2.3125 C 0.601562 -2.539062 0.753906 -2.722656 0.953125 -2.859375 C 1.160156 -2.992188 1.410156 -3.0625 1.703125 -3.0625 C 2.054688 -3.0625 2.328125 -2.988281 2.515625 -2.84375 C 2.703125 -2.695312 2.796875 -2.476562 2.796875 -2.1875 C 2.796875 -2.113281 2.789062 -2.039062 2.78125 -1.96875 C 2.769531 -1.90625 2.75 -1.8125 2.71875 -1.6875 C 2.695312 -1.5625 2.660156 -1.378906 2.609375 -1.140625 C 2.554688 -0.890625 2.519531 -0.671875 2.5 -0.484375 C 2.488281 -0.304688 2.476562 -0.144531 2.46875 0 L 2 0 L 1.96875 -0.375 C 1.832031 -0.226562 1.6875 -0.113281 1.53125 -0.03125 C 1.375 0.0390625 1.175781 0.078125 0.9375 0.078125 Z M 1.09375 -0.34375 C 1.375 -0.34375 1.609375 -0.429688 1.796875 -0.609375 C 1.992188 -0.796875 2.117188 -1.046875 2.171875 -1.359375 L 2.1875 -1.46875 C 1.851562 -1.425781 1.566406 -1.382812 1.328125 -1.34375 C 1.085938 -1.300781 0.90625 -1.234375 0.78125 -1.140625 C 0.65625 -1.054688 0.59375 -0.929688 0.59375 -0.765625 C 0.59375 -0.617188 0.640625 -0.507812 0.734375 -0.4375 C 0.835938 -0.375 0.957031 -0.34375 1.09375 -0.34375 Z M 1.09375 -0.34375 "/></g></g></g><g fill="#ffffff" fill-opacity="1"><g transform="translate(85.851383, 72.767154)"><g><path d="M -0.15625 0.984375 L 0.6875 -3 L 1.078125 -3 L 1.109375 -2.609375 C 1.179688 -2.722656 1.289062 -2.828125 1.4375 -2.921875 C 1.59375 -3.015625 1.78125 -3.0625 2 -3.0625 C 2.25 -3.0625 2.453125 -3 2.609375 -2.875 C 2.773438 -2.757812 2.894531 -2.601562 2.96875 -2.40625 C 3.050781 -2.21875 3.09375 -2.007812 3.09375 -1.78125 C 3.09375 -1.5625 3.0625 -1.34375 3 -1.125 C 2.9375 -0.914062 2.84375 -0.71875 2.71875 -0.53125 C 2.601562 -0.351562 2.453125 -0.207031 2.265625 -0.09375 C 2.085938 0.0195312 1.875 0.078125 1.625 0.078125 C 1.382812 0.078125 1.1875 0.0195312 1.03125 -0.09375 C 0.875 -0.207031 0.757812 -0.363281 0.6875 -0.5625 L 0.359375 0.984375 Z M 1.578125 -0.359375 C 1.734375 -0.359375 1.867188 -0.398438 1.984375 -0.484375 C 2.109375 -0.566406 2.210938 -0.675781 2.296875 -0.8125 C 2.378906 -0.957031 2.441406 -1.113281 2.484375 -1.28125 C 2.523438 -1.457031 2.546875 -1.628906 2.546875 -1.796875 C 2.546875 -2.054688 2.484375 -2.257812 2.359375 -2.40625 C 2.242188 -2.550781 2.078125 -2.625 1.859375 -2.625 C 1.648438 -2.625 1.46875 -2.554688 1.3125 -2.421875 C 1.164062 -2.285156 1.050781 -2.113281 0.96875 -1.90625 C 0.882812 -1.695312 0.84375 -1.484375 0.84375 -1.265625 C 0.84375 -1.015625 0.90625 -0.800781 1.03125 -0.625 C 1.164062 -0.445312 1.347656 -0.359375 1.578125 -0.359375 Z M 1.578125 -0.359375 "/></g></g></g><g fill="#ffffff" fill-opacity="1"><g transform="translate(89.221194, 72.767154)"><g><path d="M -0.15625 0.984375 L 0.6875 -3 L 1.078125 -3 L 1.109375 -2.609375 C 1.179688 -2.722656 1.289062 -2.828125 1.4375 -2.921875 C 1.59375 -3.015625 1.78125 -3.0625 2 -3.0625 C 2.25 -3.0625 2.453125 -3 2.609375 -2.875 C 2.773438 -2.757812 2.894531 -2.601562 2.96875 -2.40625 C 3.050781 -2.21875 3.09375 -2.007812 3.09375 -1.78125 C 3.09375 -1.5625 3.0625 -1.34375 3 -1.125 C 2.9375 -0.914062 2.84375 -0.71875 2.71875 -0.53125 C 2.601562 -0.351562 2.453125 -0.207031 2.265625 -0.09375 C 2.085938 0.0195312 1.875 0.078125 1.625 0.078125 C 1.382812 0.078125 1.1875 0.0195312 1.03125 -0.09375 C 0.875 -0.207031 0.757812 -0.363281 0.6875 -0.5625 L 0.359375 0.984375 Z M 1.578125 -0.359375 C 1.734375 -0.359375 1.867188 -0.398438 1.984375 -0.484375 C 2.109375 -0.566406 2.210938 -0.675781 2.296875 -0.8125 C 2.378906 -0.957031 2.441406 -1.113281 2.484375 -1.28125 C 2.523438 -1.457031 2.546875 -1.628906 2.546875 -1.796875 C 2.546875 -2.054688 2.484375 -2.257812 2.359375 -2.40625 C 2.242188 -2.550781 2.078125 -2.625 1.859375 -2.625 C 1.648438 -2.625 1.46875 -2.554688 1.3125 -2.421875 C 1.164062 -2.285156 1.050781 -2.113281 0.96875 -1.90625 C 0.882812 -1.695312 0.84375 -1.484375 0.84375 -1.265625 C 0.84375 -1.015625 0.90625 -0.800781 1.03125 -0.625 C 1.164062 -0.445312 1.347656 -0.359375 1.578125 -0.359375 Z M 1.578125 -0.359375 "/></g></g></g><g fill="#ffffff" fill-opacity="1"><g transform="translate(92.591005, 72.767154)"><g><path d="M 1.390625 -3.578125 C 1.285156 -3.578125 1.195312 -3.613281 1.125 -3.6875 C 1.050781 -3.769531 1.015625 -3.859375 1.015625 -3.953125 C 1.015625 -4.054688 1.050781 -4.144531 1.125 -4.21875 C 1.195312 -4.300781 1.285156 -4.34375 1.390625 -4.34375 C 1.492188 -4.34375 1.582031 -4.300781 1.65625 -4.21875 C 1.726562 -4.144531 1.765625 -4.054688 1.765625 -3.953125 C 1.765625 -3.859375 1.726562 -3.769531 1.65625 -3.6875 C 1.582031 -3.613281 1.492188 -3.578125 1.390625 -3.578125 Z M 0.28125 0 L 0.828125 -2.59375 L 0.34375 -2.59375 L 0.4375 -3 L 1.4375 -3 L 0.796875 0 Z M 0.28125 0 "/></g></g></g><g fill="#ffffff" fill-opacity="1"><g transform="translate(94.227426, 72.767154)"><g><path d="M 0.046875 0 L 0.6875 -3 L 1.078125 -3 L 1.109375 -2.59375 C 1.210938 -2.71875 1.34375 -2.828125 1.5 -2.921875 C 1.664062 -3.015625 1.882812 -3.0625 2.15625 -3.0625 C 2.414062 -3.0625 2.613281 -2.988281 2.75 -2.84375 C 2.894531 -2.707031 2.96875 -2.5 2.96875 -2.21875 C 2.96875 -2.070312 2.953125 -1.910156 2.921875 -1.734375 L 2.546875 0 L 2.03125 0 L 2.375 -1.6875 C 2.414062 -1.863281 2.4375 -2.007812 2.4375 -2.125 C 2.4375 -2.300781 2.394531 -2.425781 2.3125 -2.5 C 2.226562 -2.570312 2.101562 -2.609375 1.9375 -2.609375 C 1.789062 -2.609375 1.644531 -2.570312 1.5 -2.5 C 1.363281 -2.4375 1.242188 -2.328125 1.140625 -2.171875 C 1.035156 -2.023438 0.953125 -1.820312 0.890625 -1.5625 L 0.5625 0 Z M 0.046875 0 "/></g></g></g><g fill="#ffffff" fill-opacity="1"><g transform="translate(97.560872, 72.767154)"><g><path d="M 1.09375 1.15625 C 0.832031 1.15625 0.597656 1.09375 0.390625 0.96875 C 0.179688 0.84375 0.0390625 0.675781 -0.03125 0.46875 L 0.515625 0.328125 C 0.535156 0.421875 0.597656 0.503906 0.703125 0.578125 C 0.804688 0.660156 0.945312 0.703125 1.125 0.703125 C 1.34375 0.703125 1.515625 0.664062 1.640625 0.59375 C 1.765625 0.519531 1.859375 0.414062 1.921875 0.28125 C 1.984375 0.15625 2.035156 0.015625 2.078125 -0.140625 L 2.15625 -0.484375 C 2.050781 -0.359375 1.925781 -0.257812 1.78125 -0.1875 C 1.632812 -0.125 1.484375 -0.09375 1.328125 -0.09375 C 1.140625 -0.09375 0.957031 -0.140625 0.78125 -0.234375 C 0.613281 -0.328125 0.472656 -0.460938 0.359375 -0.640625 C 0.242188 -0.828125 0.1875 -1.0625 0.1875 -1.34375 C 0.1875 -1.65625 0.242188 -1.941406 0.359375 -2.203125 C 0.484375 -2.460938 0.648438 -2.671875 0.859375 -2.828125 C 1.066406 -2.984375 1.316406 -3.0625 1.609375 -3.0625 C 1.828125 -3.0625 2.023438 -3.015625 2.203125 -2.921875 C 2.378906 -2.828125 2.503906 -2.695312 2.578125 -2.53125 L 2.828125 -3 L 3.203125 -3 C 3.109375 -2.550781 3.007812 -2.097656 2.90625 -1.640625 C 2.8125 -1.191406 2.71875 -0.738281 2.625 -0.28125 C 2.601562 -0.195312 2.578125 -0.09375 2.546875 0.03125 C 2.523438 0.15625 2.484375 0.28125 2.421875 0.40625 C 2.359375 0.539062 2.273438 0.664062 2.171875 0.78125 C 2.066406 0.894531 1.925781 0.984375 1.75 1.046875 C 1.570312 1.117188 1.351562 1.15625 1.09375 1.15625 Z M 1.5 -0.546875 C 1.6875 -0.546875 1.847656 -0.609375 1.984375 -0.734375 C 2.128906 -0.859375 2.238281 -1.015625 2.3125 -1.203125 C 2.382812 -1.398438 2.421875 -1.597656 2.421875 -1.796875 C 2.421875 -2.066406 2.34375 -2.269531 2.1875 -2.40625 C 2.039062 -2.550781 1.867188 -2.625 1.671875 -2.625 C 1.460938 -2.625 1.289062 -2.5625 1.15625 -2.4375 C 1.019531 -2.3125 0.914062 -2.15625 0.84375 -1.96875 C 0.769531 -1.78125 0.734375 -1.582031 0.734375 -1.375 C 0.734375 -1.113281 0.800781 -0.910156 0.9375 -0.765625 C 1.082031 -0.617188 1.269531 -0.546875 1.5 -0.546875 Z M 1.5 -0.546875 "/></g></g></g><g fill="#ffffff" fill-opacity="1"><g transform="translate(100.924622, 72.767154)"><g/></g></g><g fill="#ffffff" fill-opacity="1"><g transform="translate(102.621647, 72.767154)"><g><path d="M 0.078125 0 L 0.953125 -4.046875 L 1.890625 -4.046875 L 2.265625 -0.765625 L 4.03125 -4.046875 L 5.015625 -4.046875 L 4.15625 0 L 3.578125 0 L 4.296875 -3.390625 L 2.421875 0 L 1.84375 0 L 1.40625 -3.484375 L 0.671875 0 Z M 0.078125 0 "/></g></g></g><g fill="#ffffff" fill-opacity="1"><g transform="translate(107.615752, 72.767154)"><g><path d="M 0.9375 0.078125 C 0.675781 0.078125 0.457031 0.00390625 0.28125 -0.140625 C 0.113281 -0.285156 0.03125 -0.472656 0.03125 -0.703125 C 0.03125 -0.910156 0.0820312 -1.078125 0.1875 -1.203125 C 0.300781 -1.335938 0.441406 -1.445312 0.609375 -1.53125 C 0.773438 -1.613281 0.957031 -1.675781 1.15625 -1.71875 C 1.363281 -1.757812 1.5625 -1.789062 1.75 -1.8125 C 1.9375 -1.832031 2.101562 -1.851562 2.25 -1.875 C 2.257812 -1.925781 2.265625 -1.972656 2.265625 -2.015625 C 2.273438 -2.066406 2.28125 -2.117188 2.28125 -2.171875 C 2.28125 -2.484375 2.097656 -2.640625 1.734375 -2.640625 C 1.546875 -2.640625 1.382812 -2.597656 1.25 -2.515625 C 1.125 -2.429688 1.023438 -2.316406 0.953125 -2.171875 L 0.5 -2.3125 C 0.601562 -2.539062 0.753906 -2.722656 0.953125 -2.859375 C 1.160156 -2.992188 1.410156 -3.0625 1.703125 -3.0625 C 2.054688 -3.0625 2.328125 -2.988281 2.515625 -2.84375 C 2.703125 -2.695312 2.796875 -2.476562 2.796875 -2.1875 C 2.796875 -2.113281 2.789062 -2.039062 2.78125 -1.96875 C 2.769531 -1.90625 2.75 -1.8125 2.71875 -1.6875 C 2.695312 -1.5625 2.660156 -1.378906 2.609375 -1.140625 C 2.554688 -0.890625 2.519531 -0.671875 2.5 -0.484375 C 2.488281 -0.304688 2.476562 -0.144531 2.46875 0 L 2 0 L 1.96875 -0.375 C 1.832031 -0.226562 1.6875 -0.113281 1.53125 -0.03125 C 1.375 0.0390625 1.175781 0.078125 0.9375 0.078125 Z M 1.09375 -0.34375 C 1.375 -0.34375 1.609375 -0.429688 1.796875 -0.609375 C 1.992188 -0.796875 2.117188 -1.046875 2.171875 -1.359375 L 2.1875 -1.46875 C 1.851562 -1.425781 1.566406 -1.382812 1.328125 -1.34375 C 1.085938 -1.300781 0.90625 -1.234375 0.78125 -1.140625 C 0.65625 -1.054688 0.59375 -0.929688 0.59375 -0.765625 C 0.59375 -0.617188 0.640625 -0.507812 0.734375 -0.4375 C 0.835938 -0.375 0.957031 -0.34375 1.09375 -0.34375 Z M 1.09375 -0.34375 "/></g></g></g><g fill="#ffffff" fill-opacity="1"><g transform="translate(110.773435, 72.767154)"><g><path d="M 1.25 0.078125 C 1.019531 0.078125 0.820312 0.0234375 0.65625 -0.078125 C 0.5 -0.191406 0.375 -0.34375 0.28125 -0.53125 C 0.195312 -0.726562 0.15625 -0.953125 0.15625 -1.203125 C 0.15625 -1.441406 0.191406 -1.671875 0.265625 -1.890625 C 0.335938 -2.109375 0.4375 -2.304688 0.5625 -2.484375 C 0.6875 -2.660156 0.835938 -2.800781 1.015625 -2.90625 C 1.203125 -3.007812 1.410156 -3.0625 1.640625 -3.0625 C 1.878906 -3.0625 2.078125 -3 2.234375 -2.875 C 2.398438 -2.75 2.515625 -2.59375 2.578125 -2.40625 L 2.921875 -4.046875 L 3.4375 -4.046875 C 3.4375 -4.046875 3.425781 -3.992188 3.40625 -3.890625 C 3.382812 -3.785156 3.351562 -3.640625 3.3125 -3.453125 C 3.269531 -3.273438 3.222656 -3.078125 3.171875 -2.859375 C 3.128906 -2.648438 3.085938 -2.4375 3.046875 -2.21875 C 3.003906 -2 2.960938 -1.796875 2.921875 -1.609375 C 2.878906 -1.421875 2.84375 -1.265625 2.8125 -1.140625 C 2.789062 -1.035156 2.765625 -0.882812 2.734375 -0.6875 C 2.703125 -0.488281 2.679688 -0.257812 2.671875 0 L 2.1875 0 L 2.15625 -0.375 C 2.050781 -0.238281 1.925781 -0.128906 1.78125 -0.046875 C 1.644531 0.0351562 1.46875 0.078125 1.25 0.078125 Z M 1.375 -0.359375 C 1.582031 -0.359375 1.765625 -0.421875 1.921875 -0.546875 C 2.078125 -0.671875 2.195312 -0.832031 2.28125 -1.03125 C 2.363281 -1.238281 2.40625 -1.460938 2.40625 -1.703125 C 2.40625 -1.984375 2.34375 -2.207031 2.21875 -2.375 C 2.101562 -2.539062 1.929688 -2.625 1.703125 -2.625 C 1.484375 -2.625 1.300781 -2.550781 1.15625 -2.40625 C 1.007812 -2.269531 0.894531 -2.09375 0.8125 -1.875 C 0.738281 -1.65625 0.703125 -1.429688 0.703125 -1.203125 C 0.703125 -0.921875 0.769531 -0.707031 0.90625 -0.5625 C 1.039062 -0.425781 1.195312 -0.359375 1.375 -0.359375 Z M 1.375 -0.359375 "/></g></g></g><g fill="#ffffff" fill-opacity="1"><g transform="translate(114.137185, 72.767154)"><g><path d="M 1.4375 0.078125 C 1.039062 0.078125 0.726562 -0.0351562 0.5 -0.265625 C 0.269531 -0.503906 0.15625 -0.816406 0.15625 -1.203125 C 0.15625 -1.554688 0.222656 -1.875 0.359375 -2.15625 C 0.503906 -2.4375 0.707031 -2.65625 0.96875 -2.8125 C 1.226562 -2.976562 1.53125 -3.0625 1.875 -3.0625 C 2.144531 -3.0625 2.367188 -3.003906 2.546875 -2.890625 C 2.722656 -2.785156 2.851562 -2.640625 2.9375 -2.453125 C 3.03125 -2.265625 3.078125 -2.050781 3.078125 -1.8125 C 3.078125 -1.664062 3.0625 -1.515625 3.03125 -1.359375 L 0.703125 -1.359375 C 0.703125 -1.335938 0.703125 -1.3125 0.703125 -1.28125 C 0.703125 -1.25 0.703125 -1.21875 0.703125 -1.1875 C 0.703125 -0.988281 0.738281 -0.828125 0.8125 -0.703125 C 0.894531 -0.585938 1 -0.503906 1.125 -0.453125 C 1.25 -0.398438 1.375 -0.375 1.5 -0.375 C 1.675781 -0.375 1.820312 -0.398438 1.9375 -0.453125 C 2.0625 -0.515625 2.164062 -0.585938 2.25 -0.671875 L 2.71875 -0.53125 C 2.582031 -0.351562 2.40625 -0.207031 2.1875 -0.09375 C 1.976562 0.0195312 1.726562 0.078125 1.4375 0.078125 Z M 0.78125 -1.78125 L 2.546875 -1.78125 C 2.554688 -1.800781 2.5625 -1.816406 2.5625 -1.828125 C 2.5625 -1.847656 2.5625 -1.863281 2.5625 -1.875 C 2.5625 -2 2.535156 -2.117188 2.484375 -2.234375 C 2.429688 -2.347656 2.347656 -2.441406 2.234375 -2.515625 C 2.128906 -2.585938 1.984375 -2.625 1.796875 -2.625 C 1.648438 -2.625 1.503906 -2.585938 1.359375 -2.515625 C 1.222656 -2.453125 1.101562 -2.359375 1 -2.234375 C 0.894531 -2.109375 0.820312 -1.957031 0.78125 -1.78125 Z M 0.78125 -1.78125 "/></g></g></g><g fill="#ffffff" fill-opacity="1"><g transform="translate(117.422143, 72.767154)"><g/></g></g><g fill="#ffffff" fill-opacity="1"><g transform="translate(119.119168, 72.767154)"><g><path d="M 1.734375 0.078125 C 1.515625 0.078125 1.300781 0.0390625 1.09375 -0.03125 C 0.894531 -0.101562 0.71875 -0.207031 0.5625 -0.34375 C 0.40625 -0.488281 0.289062 -0.671875 0.21875 -0.890625 L 0.765625 -1.046875 C 0.847656 -0.828125 0.984375 -0.664062 1.171875 -0.5625 C 1.367188 -0.457031 1.570312 -0.40625 1.78125 -0.40625 C 1.9375 -0.40625 2.082031 -0.429688 2.21875 -0.484375 C 2.363281 -0.535156 2.476562 -0.613281 2.5625 -0.71875 C 2.65625 -0.832031 2.703125 -0.960938 2.703125 -1.109375 C 2.703125 -1.253906 2.660156 -1.367188 2.578125 -1.453125 C 2.503906 -1.546875 2.398438 -1.617188 2.265625 -1.671875 C 2.140625 -1.734375 2 -1.785156 1.84375 -1.828125 C 1.695312 -1.867188 1.546875 -1.914062 1.390625 -1.96875 C 1.234375 -2.03125 1.085938 -2.097656 0.953125 -2.171875 C 0.828125 -2.253906 0.722656 -2.359375 0.640625 -2.484375 C 0.566406 -2.617188 0.53125 -2.789062 0.53125 -3 C 0.53125 -3.25 0.597656 -3.457031 0.734375 -3.625 C 0.878906 -3.789062 1.054688 -3.914062 1.265625 -4 C 1.484375 -4.082031 1.71875 -4.125 1.96875 -4.125 C 2.164062 -4.125 2.359375 -4.09375 2.546875 -4.03125 C 2.734375 -3.976562 2.898438 -3.894531 3.046875 -3.78125 C 3.203125 -3.675781 3.320312 -3.535156 3.40625 -3.359375 L 2.84375 -3.203125 C 2.769531 -3.347656 2.644531 -3.457031 2.46875 -3.53125 C 2.300781 -3.601562 2.125 -3.640625 1.9375 -3.640625 C 1.789062 -3.640625 1.65625 -3.617188 1.53125 -3.578125 C 1.40625 -3.535156 1.300781 -3.46875 1.21875 -3.375 C 1.144531 -3.28125 1.109375 -3.160156 1.109375 -3.015625 C 1.109375 -2.878906 1.144531 -2.769531 1.21875 -2.6875 C 1.300781 -2.601562 1.40625 -2.535156 1.53125 -2.484375 C 1.664062 -2.429688 1.8125 -2.378906 1.96875 -2.328125 C 2.125 -2.285156 2.28125 -2.238281 2.4375 -2.1875 C 2.59375 -2.132812 2.734375 -2.066406 2.859375 -1.984375 C 2.992188 -1.898438 3.097656 -1.796875 3.171875 -1.671875 C 3.253906 -1.546875 3.296875 -1.382812 3.296875 -1.1875 C 3.296875 -0.988281 3.25 -0.8125 3.15625 -0.65625 C 3.070312 -0.5 2.953125 -0.363281 2.796875 -0.25 C 2.648438 -0.144531 2.484375 -0.0625 2.296875 0 C 2.117188 0.0507812 1.929688 0.078125 1.734375 0.078125 Z M 1.734375 0.078125 "/></g></g></g><g fill="#ffffff" fill-opacity="1"><g transform="translate(122.810201, 72.767154)"><g><path d="M 1.390625 -3.578125 C 1.285156 -3.578125 1.195312 -3.613281 1.125 -3.6875 C 1.050781 -3.769531 1.015625 -3.859375 1.015625 -3.953125 C 1.015625 -4.054688 1.050781 -4.144531 1.125 -4.21875 C 1.195312 -4.300781 1.285156 -4.34375 1.390625 -4.34375 C 1.492188 -4.34375 1.582031 -4.300781 1.65625 -4.21875 C 1.726562 -4.144531 1.765625 -4.054688 1.765625 -3.953125 C 1.765625 -3.859375 1.726562 -3.769531 1.65625 -3.6875 C 1.582031 -3.613281 1.492188 -3.578125 1.390625 -3.578125 Z M 0.28125 0 L 0.828125 -2.59375 L 0.34375 -2.59375 L 0.4375 -3 L 1.4375 -3 L 0.796875 0 Z M 0.28125 0 "/></g></g></g><g fill="#ffffff" fill-opacity="1"><g transform="translate(124.446621, 72.767154)"><g><path d="M 0.046875 0 L 0.6875 -3 L 1.078125 -3 L 1.109375 -2.59375 C 1.222656 -2.726562 1.351562 -2.835938 1.5 -2.921875 C 1.65625 -3.015625 1.84375 -3.0625 2.0625 -3.0625 C 2.300781 -3.0625 2.484375 -3.007812 2.609375 -2.90625 C 2.734375 -2.8125 2.820312 -2.679688 2.875 -2.515625 C 3.03125 -2.710938 3.191406 -2.851562 3.359375 -2.9375 C 3.535156 -3.019531 3.734375 -3.0625 3.953125 -3.0625 C 4.003906 -3.0625 4.070312 -3.050781 4.15625 -3.03125 C 4.25 -3.019531 4.34375 -2.988281 4.4375 -2.9375 C 4.53125 -2.894531 4.609375 -2.816406 4.671875 -2.703125 C 4.742188 -2.597656 4.78125 -2.445312 4.78125 -2.25 C 4.78125 -2.132812 4.757812 -1.988281 4.71875 -1.8125 L 4.34375 0 L 3.8125 0 L 4.1875 -1.75 C 4.226562 -1.914062 4.25 -2.054688 4.25 -2.171875 C 4.25 -2.316406 4.210938 -2.425781 4.140625 -2.5 C 4.078125 -2.570312 3.960938 -2.609375 3.796875 -2.609375 C 3.535156 -2.609375 3.320312 -2.519531 3.15625 -2.34375 C 2.988281 -2.175781 2.867188 -1.941406 2.796875 -1.640625 L 2.453125 0 L 1.9375 0 L 2.296875 -1.75 C 2.335938 -1.90625 2.359375 -2.046875 2.359375 -2.171875 C 2.359375 -2.316406 2.320312 -2.425781 2.25 -2.5 C 2.175781 -2.570312 2.054688 -2.609375 1.890625 -2.609375 C 1.671875 -2.609375 1.472656 -2.53125 1.296875 -2.375 C 1.117188 -2.21875 0.992188 -1.972656 0.921875 -1.640625 L 0.5625 0 Z M 0.046875 0 "/></g></g></g><g fill="#ffffff" fill-opacity="1"><g transform="translate(129.574067, 72.767154)"><g><path d="M -0.15625 0.984375 L 0.6875 -3 L 1.078125 -3 L 1.109375 -2.609375 C 1.179688 -2.722656 1.289062 -2.828125 1.4375 -2.921875 C 1.59375 -3.015625 1.78125 -3.0625 2 -3.0625 C 2.25 -3.0625 2.453125 -3 2.609375 -2.875 C 2.773438 -2.757812 2.894531 -2.601562 2.96875 -2.40625 C 3.050781 -2.21875 3.09375 -2.007812 3.09375 -1.78125 C 3.09375 -1.5625 3.0625 -1.34375 3 -1.125 C 2.9375 -0.914062 2.84375 -0.71875 2.71875 -0.53125 C 2.601562 -0.351562 2.453125 -0.207031 2.265625 -0.09375 C 2.085938 0.0195312 1.875 0.078125 1.625 0.078125 C 1.382812 0.078125 1.1875 0.0195312 1.03125 -0.09375 C 0.875 -0.207031 0.757812 -0.363281 0.6875 -0.5625 L 0.359375 0.984375 Z M 1.578125 -0.359375 C 1.734375 -0.359375 1.867188 -0.398438 1.984375 -0.484375 C 2.109375 -0.566406 2.210938 -0.675781 2.296875 -0.8125 C 2.378906 -0.957031 2.441406 -1.113281 2.484375 -1.28125 C 2.523438 -1.457031 2.546875 -1.628906 2.546875 -1.796875 C 2.546875 -2.054688 2.484375 -2.257812 2.359375 -2.40625 C 2.242188 -2.550781 2.078125 -2.625 1.859375 -2.625 C 1.648438 -2.625 1.46875 -2.554688 1.3125 -2.421875 C 1.164062 -2.285156 1.050781 -2.113281 0.96875 -1.90625 C 0.882812 -1.695312 0.84375 -1.484375 0.84375 -1.265625 C 0.84375 -1.015625 0.90625 -0.800781 1.03125 -0.625 C 1.164062 -0.445312 1.347656 -0.359375 1.578125 -0.359375 Z M 1.578125 -0.359375 "/></g></g></g><g fill="#ffffff" fill-opacity="1"><g transform="translate(132.943879, 72.767154)"><g><path d="M 0.765625 0 C 0.523438 0 0.363281 -0.03125 0.28125 -0.09375 C 0.195312 -0.164062 0.15625 -0.269531 0.15625 -0.40625 C 0.15625 -0.507812 0.171875 -0.628906 0.203125 -0.765625 L 0.90625 -4.046875 L 1.421875 -4.046875 L 0.75 -0.84375 C 0.738281 -0.800781 0.726562 -0.757812 0.71875 -0.71875 C 0.71875 -0.6875 0.71875 -0.65625 0.71875 -0.625 C 0.71875 -0.570312 0.734375 -0.53125 0.765625 -0.5 C 0.804688 -0.46875 0.875 -0.453125 0.96875 -0.453125 L 1.203125 -0.453125 L 1.109375 0 Z M 0.765625 0 "/></g></g></g><g fill="#ffffff" fill-opacity="1"><g transform="translate(134.513628, 72.767154)"><g><path d="M 1.4375 0.078125 C 1.039062 0.078125 0.726562 -0.0351562 0.5 -0.265625 C 0.269531 -0.503906 0.15625 -0.816406 0.15625 -1.203125 C 0.15625 -1.554688 0.222656 -1.875 0.359375 -2.15625 C 0.503906 -2.4375 0.707031 -2.65625 0.96875 -2.8125 C 1.226562 -2.976562 1.53125 -3.0625 1.875 -3.0625 C 2.144531 -3.0625 2.367188 -3.003906 2.546875 -2.890625 C 2.722656 -2.785156 2.851562 -2.640625 2.9375 -2.453125 C 3.03125 -2.265625 3.078125 -2.050781 3.078125 -1.8125 C 3.078125 -1.664062 3.0625 -1.515625 3.03125 -1.359375 L 0.703125 -1.359375 C 0.703125 -1.335938 0.703125 -1.3125 0.703125 -1.28125 C 0.703125 -1.25 0.703125 -1.21875 0.703125 -1.1875 C 0.703125 -0.988281 0.738281 -0.828125 0.8125 -0.703125 C 0.894531 -0.585938 1 -0.503906 1.125 -0.453125 C 1.25 -0.398438 1.375 -0.375 1.5 -0.375 C 1.675781 -0.375 1.820312 -0.398438 1.9375 -0.453125 C 2.0625 -0.515625 2.164062 -0.585938 2.25 -0.671875 L 2.71875 -0.53125 C 2.582031 -0.351562 2.40625 -0.207031 2.1875 -0.09375 C 1.976562 0.0195312 1.726562 0.078125 1.4375 0.078125 Z M 0.78125 -1.78125 L 2.546875 -1.78125 C 2.554688 -1.800781 2.5625 -1.816406 2.5625 -1.828125 C 2.5625 -1.847656 2.5625 -1.863281 2.5625 -1.875 C 2.5625 -2 2.535156 -2.117188 2.484375 -2.234375 C 2.429688 -2.347656 2.347656 -2.441406 2.234375 -2.515625 C 2.128906 -2.585938 1.984375 -2.625 1.796875 -2.625 C 1.648438 -2.625 1.503906 -2.585938 1.359375 -2.515625 C 1.222656 -2.453125 1.101562 -2.359375 1 -2.234375 C 0.894531 -2.109375 0.820312 -1.957031 0.78125 -1.78125 Z M 0.78125 -1.78125 "/></g></g></g></svg>