<svg xmlns="http://www.w3.org/2000/svg" xmlns:xlink="http://www.w3.org/1999/xlink" width="100" zoomAndPan="magnify" viewBox="0 0 75 74.999997" height="100" preserveAspectRatio="xMidYMid meet" version="1.0"><defs><clipPath id="c06c1cfe9e"><path d="M 2.0625 2.0625 L 73.3125 2.0625 L 73.3125 73.3125 L 2.0625 73.3125 Z M 2.0625 2.0625 " clip-rule="nonzero"/></clipPath></defs><g clip-path="url(#c06c1cfe9e)"><path fill="#ffa726" d="M 37.6875 73.3125 C 57.308594 73.3125 73.3125 57.308594 73.3125 37.6875 C 73.3125 18.066406 57.308594 2.0625 37.6875 2.0625 C 18.066406 2.0625 2.0625 18.066406 2.0625 37.6875 C 2.0625 57.308594 18.066406 73.3125 37.6875 73.3125 " fill-opacity="1" fill-rule="evenodd"/></g><path fill="#c38326" d="M 36.945312 49.867188 L 32.757812 42.882812 C 27.355469 44.714844 20.308594 45.210938 19.804688 52.480469 C 19.742188 53.402344 19.589844 55.703125 19.523438 57.953125 L 58.488281 57.953125 C 58.421875 55.703125 58.273438 53.402344 58.210938 52.480469 C 57.703125 45.210938 50.65625 44.714844 45.257812 42.882812 L 41.070312 49.867188 L 36.945312 49.867188 " fill-opacity="1" fill-rule="evenodd"/><path fill="#c38326" d="M 46.832031 24.382812 L 46.6875 27.53125 C 47.929688 29.890625 46.65625 31.183594 46.003906 31.652344 C 45.695312 34.363281 44.140625 36.171875 42.175781 37.074219 C 41.214844 37.515625 40.160156 37.738281 39.109375 37.738281 C 38.058594 37.738281 37.003906 37.515625 36.042969 37.074219 C 34.082031 36.171875 32.527344 34.363281 32.214844 31.652344 C 31.5625 31.183594 30.289062 29.890625 31.535156 27.53125 L 31.390625 24.382812 L 31.414062 24.167969 C 31.988281 22.207031 33.316406 20.792969 34.96875 19.925781 C 36.304688 19.226562 37.855469 18.890625 39.382812 18.914062 C 40.914062 18.9375 42.4375 19.324219 43.710938 20.070312 C 45.207031 20.953125 46.363281 22.328125 46.8125 24.199219 L 46.832031 24.382812 " fill-opacity="1" fill-rule="evenodd"/><path fill="#c38326" d="M 38.964844 45.445312 C 42.410156 45.445312 45.203125 47.761719 45.203125 49.78125 C 45.203125 51.796875 43.890625 57.21875 41.953125 57.953125 L 35.980469 57.953125 C 34.042969 57.21875 32.730469 51.796875 32.730469 49.78125 C 32.730469 47.761719 35.523438 45.445312 38.964844 45.445312 " fill-opacity="1" fill-rule="evenodd"/><path fill="#c38326" d="M 39.050781 45.492188 L 36.695312 47.96875 L 37.398438 48.867188 L 35.589844 57.953125 L 40.53125 57.953125 L 42.105469 57.886719 L 40.921875 48.867188 L 41.402344 47.96875 L 39.050781 45.492188 " fill-opacity="1" fill-rule="evenodd"/><path fill="#c38326" d="M 44.269531 35.207031 L 44.53125 40.539062 L 38.878906 46.203125 L 33.566406 40.402344 L 33.8125 35.191406 L 44.269531 35.207031 " fill-opacity="1" fill-rule="evenodd"/><path fill="#c38326" d="M 38.667969 45.492188 L 36.695312 47.96875 L 37.398438 48.867188 L 40.921875 48.867188 L 41.402344 47.96875 L 39.472656 45.492188 L 38.667969 45.492188 " fill-opacity="1" fill-rule="evenodd"/><path fill="#c38326" d="M 31.199219 42.882812 L 33.582031 40.082031 L 39.050781 45.492188 L 34.867188 50.167969 L 31.199219 42.882812 " fill-opacity="1" fill-rule="evenodd"/><path fill="#c38326" d="M 46.898438 42.882812 L 44.515625 40.082031 L 39.050781 45.492188 L 43.230469 50.167969 L 46.898438 42.882812 " fill-opacity="1" fill-rule="evenodd"/><path fill="#c38326" d="M 46.839844 28.433594 C 46.839844 28.433594 49.519531 32.355469 46.03125 33.976562 L 46.839844 28.433594 " fill-opacity="1" fill-rule="evenodd"/><path fill="#c38326" d="M 31.261719 28.433594 C 31.261719 28.433594 28.578125 32.355469 32.066406 33.976562 L 31.261719 28.433594 " fill-opacity="1" fill-rule="evenodd"/><path fill="#c38326" d="M 39.738281 20.964844 C 44.019531 20.964844 46.929688 24.324219 46.929688 30.054688 C 46.929688 33.785156 44.191406 41.445312 39.785156 41.445312 C 39.292969 41.445312 38.804688 41.445312 38.3125 41.445312 C 33.90625 41.445312 31.167969 33.785156 31.167969 30.054688 C 31.167969 24.324219 34.078125 20.964844 38.359375 20.964844 C 38.820312 20.964844 39.277344 20.964844 39.738281 20.964844 " fill-opacity="1" fill-rule="evenodd"/><path fill="#c38326" d="M 31.167969 30.054688 C 31.167969 30.054688 30.144531 23.058594 31.320312 22.441406 C 31.097656 21.175781 32.347656 20.046875 33.234375 19.707031 C 33.234375 19.707031 34.78125 17.882812 38.433594 17.511719 C 38.433594 17.511719 43.957031 16.457031 47.191406 21.535156 C 47.71875 22.355469 47.628906 22.171875 47.035156 22.929688 C 47.453125 25.121094 47.410156 28.046875 46.929688 30.199219 C 46.929688 30.199219 46.078125 24.753906 45.117188 24.042969 C 45.117188 24.042969 39.484375 27.074219 33.261719 23.515625 C 33.261719 23.515625 32.417969 24.140625 32.03125 25.671875 C 31.945312 26.011719 31.890625 26.351562 31.832031 26.753906 C 31.664062 27.914062 31.4375 28.890625 31.167969 30.054688 " fill-opacity="1" fill-rule="evenodd"/><path fill="#c38326" d="M 33.550781 57.953125 L 29.460938 50.179688 L 30.734375 47.984375 L 28.441406 47.269531 L 28.871094 43.890625 L 31.386719 42.882812 L 31.503906 43.109375 L 39.007812 57.953125 L 33.550781 57.953125 " fill-opacity="1" fill-rule="evenodd"/><path fill="#c38326" d="M 44.460938 57.953125 L 48.554688 50.179688 L 47.28125 47.984375 L 49.574219 47.269531 L 49.140625 43.890625 L 46.625 42.882812 L 46.511719 43.109375 L 39.007812 57.953125 L 44.460938 57.953125 " fill-opacity="1" fill-rule="evenodd"/><path fill="#c38326" d="M 27.039062 53.09375 L 27.917969 57.953125 L 26.484375 57.953125 Z M 27.039062 53.09375 " fill-opacity="1" fill-rule="evenodd"/><path fill="#c38326" d="M 50.972656 53.09375 L 50.09375 57.953125 L 51.53125 57.953125 Z M 50.972656 53.09375 " fill-opacity="1" fill-rule="evenodd"/><path fill="#6b809b" d="M 35.625 49.867188 L 31.4375 42.882812 C 26.035156 44.714844 18.992188 45.210938 18.484375 52.480469 C 18.421875 53.402344 18.269531 55.703125 18.203125 57.953125 L 57.167969 57.953125 C 57.105469 55.703125 56.953125 53.402344 56.890625 52.480469 C 56.382812 45.210938 49.339844 44.714844 43.9375 42.882812 L 39.75 49.867188 L 35.625 49.867188 " fill-opacity="1" fill-rule="evenodd"/><path fill="#000000" d="M 45.511719 24.382812 L 45.367188 27.53125 C 46.609375 29.890625 45.335938 31.183594 44.683594 31.652344 C 44.375 34.363281 42.820312 36.171875 40.855469 37.074219 C 39.894531 37.515625 38.839844 37.738281 37.789062 37.738281 C 36.742188 37.738281 35.6875 37.515625 34.726562 37.074219 C 32.761719 36.171875 31.207031 34.363281 30.898438 31.652344 C 30.242188 31.183594 28.972656 29.890625 30.214844 27.53125 L 30.070312 24.382812 L 30.097656 24.167969 C 30.667969 22.207031 31.996094 20.792969 33.652344 19.925781 C 34.988281 19.226562 36.535156 18.890625 38.0625 18.914062 C 39.597656 18.9375 41.117188 19.324219 42.390625 20.070312 C 43.886719 20.953125 45.042969 22.328125 45.492188 24.199219 L 45.511719 24.382812 " fill-opacity="1" fill-rule="nonzero"/><path fill="#ffffff" d="M 37.648438 45.445312 C 41.089844 45.445312 43.882812 47.761719 43.882812 49.78125 C 43.882812 51.796875 42.570312 57.21875 40.632812 57.953125 L 34.660156 57.953125 C 32.722656 57.21875 31.410156 51.796875 31.410156 49.78125 C 31.410156 47.761719 34.203125 45.445312 37.648438 45.445312 " fill-opacity="1" fill-rule="evenodd"/><path fill="#00bcd4" d="M 37.730469 45.492188 L 35.378906 47.96875 L 36.078125 48.867188 L 34.269531 57.953125 L 39.210938 57.953125 L 40.785156 57.886719 L 39.601562 48.867188 L 40.082031 47.96875 L 37.730469 45.492188 " fill-opacity="1" fill-rule="evenodd"/><path fill="#d3aa96" d="M 42.949219 35.207031 L 43.210938 40.539062 L 37.558594 46.203125 L 32.246094 40.402344 L 32.492188 35.191406 L 42.949219 35.207031 " fill-opacity="1" fill-rule="evenodd"/><path fill="#02abc1" d="M 37.351562 45.492188 L 35.378906 47.96875 L 36.078125 48.867188 L 39.601562 48.867188 L 40.082031 47.96875 L 38.152344 45.492188 L 37.351562 45.492188 " fill-opacity="1" fill-rule="evenodd"/><path fill="#e8e8e8" d="M 29.882812 42.882812 L 32.261719 40.082031 L 37.730469 45.492188 L 33.546875 50.167969 L 29.882812 42.882812 " fill-opacity="1" fill-rule="evenodd"/><path fill="#e8e8e8" d="M 45.578125 42.882812 L 43.195312 40.082031 L 37.730469 45.492188 L 41.910156 50.167969 L 45.578125 42.882812 " fill-opacity="1" fill-rule="evenodd"/><path fill="#d3aa96" d="M 45.519531 28.433594 C 45.519531 28.433594 48.199219 32.355469 44.710938 33.976562 L 45.519531 28.433594 " fill-opacity="1" fill-rule="evenodd"/><path fill="#d3aa96" d="M 29.941406 28.433594 C 29.941406 28.433594 27.261719 32.355469 30.75 33.976562 L 29.941406 28.433594 " fill-opacity="1" fill-rule="evenodd"/><path fill="#ffceb4" d="M 38.417969 20.964844 C 42.699219 20.964844 45.613281 24.324219 45.613281 30.054688 C 45.613281 33.785156 42.871094 41.445312 38.46875 41.445312 C 37.972656 41.445312 37.484375 41.445312 36.992188 41.445312 C 32.585938 41.445312 29.847656 33.785156 29.847656 30.054688 C 29.847656 24.324219 32.757812 20.964844 37.039062 20.964844 C 37.5 20.964844 37.960938 20.964844 38.417969 20.964844 " fill-opacity="1" fill-rule="evenodd"/><path fill="#000000" d="M 29.847656 30.054688 C 29.847656 30.054688 28.828125 23.058594 30.003906 22.441406 C 29.78125 21.175781 31.027344 20.046875 31.914062 19.707031 C 31.914062 19.707031 33.460938 17.882812 37.113281 17.511719 C 37.113281 17.511719 42.636719 16.457031 45.875 21.535156 C 46.398438 22.355469 46.308594 22.171875 45.71875 22.929688 C 46.132812 25.121094 46.09375 28.046875 45.609375 30.199219 C 45.609375 30.199219 44.757812 24.753906 43.796875 24.042969 C 43.796875 24.042969 38.164062 27.074219 31.945312 23.515625 C 31.945312 23.515625 31.097656 24.140625 30.714844 25.671875 C 30.628906 26.011719 30.570312 26.351562 30.511719 26.753906 C 30.34375 27.914062 30.117188 28.890625 29.847656 30.054688 " fill-opacity="1" fill-rule="evenodd"/><path fill="#4f6074" d="M 32.230469 57.953125 L 28.140625 50.179688 L 29.414062 47.984375 L 27.121094 47.269531 L 27.554688 43.890625 L 30.066406 42.882812 L 30.183594 43.109375 L 37.6875 57.953125 L 32.230469 57.953125 " fill-opacity="1" fill-rule="evenodd"/><path fill="#4f6074" d="M 43.144531 57.953125 L 47.234375 50.179688 L 45.960938 47.984375 L 48.253906 47.269531 L 47.820312 43.890625 L 45.308594 42.882812 L 45.191406 43.109375 L 37.6875 57.953125 L 43.144531 57.953125 " fill-opacity="1" fill-rule="evenodd"/><path fill="#4f6074" d="M 25.71875 53.09375 L 26.597656 57.953125 L 25.164062 57.953125 Z M 25.71875 53.09375 " fill-opacity="1" fill-rule="evenodd"/><path fill="#4f6074" d="M 49.65625 53.09375 L 48.773438 57.953125 L 50.210938 57.953125 Z M 49.65625 53.09375 " fill-opacity="1" fill-rule="evenodd"/></svg>